<?xml version="1.0" encoding="UTF-8"?>
<svg version="1.1" xmlns="http://www.w3.org/2000/svg" width="50" height="50">
<path d="M0 0 C2.75946614 -0.30330339 5.24495685 -0.41834858 8 -0.375 C9.10601563 -0.39240234 9.10601563 -0.39240234 10.234375 -0.41015625 C12.375 -0.3984375 12.375 -0.3984375 16 0 C18 3 18 3 17.625 5.6875 C17.315625 6.8321875 17.315625 6.8321875 17 8 C15.68 8 14.36 8 13 8 C13 8.99 13 9.98 13 11 C13.928125 10.938125 14.85625 10.87625 15.8125 10.8125 C19 11 19 11 20.59375 12.23046875 C25.61495437 18.54881758 25.392868 27.34634934 25 35 C26.32 35.33 27.64 35.66 29 36 C29.5859375 41.859375 29.5859375 41.859375 29 44 C24.63169219 47.52512853 21.63556344 48.51007115 16.0625 48.53125 C14.10183594 48.53898437 14.10183594 48.53898437 12.1015625 48.546875 C11.42770508 48.53849609 10.75384766 48.53011719 10.05957031 48.52148438 C8.00465877 48.5000486 5.95324182 48.52132507 3.8984375 48.546875 C2.59132813 48.54171875 1.28421875 48.5365625 -0.0625 48.53125 C-1.24972656 48.52673828 -2.43695313 48.52222656 -3.66015625 48.51757812 C-7.66219604 47.89737898 -9.86926189 46.52643694 -13 44 C-13.7868118 41.12551421 -13.30240799 39.02407988 -13 36 C-11.02 35.505 -11.02 35.505 -9 35 C-9.05220703 33.98292969 -9.05220703 33.98292969 -9.10546875 32.9453125 C-9.3106556 25.89079323 -9.18750526 18.01094413 -4.59375 12.23046875 C-2.16527547 10.35554356 0.03763821 10.80250921 3 11 C3 10.01 3 9.02 3 8 C1.68 8 0.36 8 -1 8 C-1.625 5.6875 -1.625 5.6875 -2 3 C-1.34 2.01 -0.68 1.02 0 0 Z M3 2 C2.67 3.32 2.34 4.64 2 6 C5.96 6 9.92 6 14 6 C13.67 4.68 13.34 3.36 13 2 C9.7 2 6.4 2 3 2 Z M5 8 C5 8.99 5 9.98 5 11 C6.98 11 8.96 11 11 11 C11 10.01 11 9.02 11 8 C9.02 8 7.04 8 5 8 Z M-3 15 C-6.4188497 21.51877684 -6.36823033 28.82632766 -6 36 C-2.55760332 36.82714832 0.13129243 37.01412419 3.625 36.5 C8.46622538 35.91847143 12.92345728 36.24043216 17.75 36.84375 C20.03556462 37.19392723 20.03556462 37.19392723 22 36 C22.36823033 28.82632766 22.4188497 21.51877684 19 15 C15.62898613 12.45598719 12.09937716 12.73262976 8 12.75 C6.783125 12.74484375 5.56625 12.7396875 4.3125 12.734375 C1.19024632 12.9847444 -0.5211236 13.12925917 -3 15 Z M-10 38 C-9.89386164 40.45224694 -9.89386164 40.45224694 -9 43 C-6.52363988 44.37466625 -6.52363988 44.37466625 -4 45 C-3.74969023 42.58380177 -3.74969023 42.58380177 -4 40 C-6.81509993 37.7226499 -6.81509993 37.7226499 -10 38 Z M20 40 C19.74969023 42.58380177 19.74969023 42.58380177 20 45 C22.52363988 44.37466625 22.52363988 44.37466625 25 43 C25.89386164 40.45224694 25.89386164 40.45224694 26 38 C22.81509993 37.7226499 22.81509993 37.7226499 20 40 Z M1.75 39 C0.5125 39.33 -0.725 39.66 -2 40 C-2 41.98 -2 43.96 -2 46 C4.6 46 11.2 46 18 46 C18 44.02 18 42.04 18 40 C16.7625 39.67 15.525 39.34 14.25 39 C13.20585937 38.7215625 13.20585937 38.7215625 12.140625 38.4375 C8.45337264 37.68390098 5.31960048 38.04810654 1.75 39 Z " fill="#000000" transform="translate(17,1)"/>
<path d="M0 0 C0.87527344 -0.01417969 1.75054687 -0.02835938 2.65234375 -0.04296875 C5.0625 0.1875 5.0625 0.1875 8.0625 2.1875 C9.21195522 5.93800816 9.16784869 9.60076955 9.125 13.5 C9.11597656 14.56863281 9.10695313 15.63726562 9.09765625 16.73828125 C9.08605469 17.54652344 9.07445313 18.35476562 9.0625 19.1875 C8.0725 19.1875 7.0825 19.1875 6.0625 19.1875 C5.4025 14.2375 4.7425 9.2875 4.0625 4.1875 C1.4225 4.1875 -1.2175 4.1875 -3.9375 4.1875 C-4.5975 9.1375 -5.2575 14.0875 -5.9375 19.1875 C-6.9275 19.1875 -7.9175 19.1875 -8.9375 19.1875 C-9.31917939 6.0831743 -9.31917939 6.0831743 -6.9375 1.1875 C-4.47380468 -0.04434766 -2.7480499 0.02017658 0 0 Z " fill="#000000" transform="translate(24.9375,16.8125)"/>
</svg>
